<svg xmlns="http://www.w3.org/2000/svg" data-name="Layer 4" viewBox="0 0 64 64"><path d="M31.386,29.8,19.653,41.848a1.248,1.248,0,0,1-1.768-.138L13.1,35.231a1,1,0,0,1,1.608-1.19l4.212,5.7L29.953,28.4a1,1,0,1,1,1.433,1.4ZM58.805,9.39V57.11a1,1,0,0,1-.294.708l-3.4,3.39a1,1,0,0,1-1.412,0l-2.693-2.685c-4.1,4.028-2.745,3.9-6.781,0-4.1,4.019-2.736,3.913-6.78,0-4.061,3.956-2.709,3.973-6.78,0l-2.683,2.683a1,1,0,0,1-1.414,0l-3.39-3.39a1.089,1.089,0,0,1-.293-.709V51.489c-23.469-.047-23.4-34.069,0-34.158V12.146L21.535,10.8c-2.585,2.586-2.119,2.618-4.71,0l-1.643,1.643a1,1,0,0,1-1.412,0L11.41,10.1a1,1,0,0,1-.295-.709,6.908,6.908,0,0,1,6.89-6.89h33.91A6.9,6.9,0,0,1,58.805,9.39ZM22.241,8.681l.637.634a4.883,4.883,0,0,0-9.746-.324l1.342,1.336,1.644-1.644a1,1,0,0,1,1.414,0l1.644,1.644L20.83,8.681A1,1,0,0,1,22.241,8.681ZM36.231,40.2A15.2,15.2,0,0,0,35.2,26.586c-8.412-13.53-29.222-6.732-27.94,9.174C8.733,51.449,30.109,54.63,36.231,40.2ZM56.805,9.39a4.9,4.9,0,0,0-4.89-4.89H22.848a6.905,6.905,0,0,1,1.97,3.978c.107.515.067,2.718.067,3.223-.007.01.01,5.81,0,5.816,19.16,3.219,19.185,30.576,0,33.794V56.7l2.39,2.39c4.037-3.909,2.683-4.019,6.78,0,4.061-3.956,2.71-3.972,6.78,0,4.034-3.9,2.673-4.032,6.78,0,4.039-3.9,2.668-4.029,6.79,0l2.4-2.393Zm-18.426.2a1,1,0,0,0-.008,2l16.312.074a1,1,0,0,0,.008-2Zm-2.923,1.986a1,1,0,0,0,0-2l-8.432-.038a1,1,0,0,0-.008,2Zm5.937,5.517a1,1,0,0,0,0-2L29.609,15.04a1,1,0,0,0-.008,2Zm13.3-1.942-8.682-.038a1,1,0,0,0-.009,2l8.687.038A1,1,0,0,0,54.689,15.15Zm-11.97,6.457a1,1,0,0,0,0-2l-6.314-.027a1,1,0,0,0-.009,2Zm11.97-1.947-8.158-.036a1,1,0,0,0,0,2l8.158.036A1,1,0,0,0,54.689,19.66Zm0,5.49-14.474-.06a1,1,0,0,0,0,2l14.474.06A1,1,0,0,0,54.689,25.15Zm-13,6.46,4.836.019a1,1,0,0,0,.008-2L41.7,29.61A1,1,0,0,0,41.691,31.61Zm13-1.95-4.077-.015a1,1,0,0,0-.007,2l4.076.015A1,1,0,0,0,54.689,29.66Zm0,5.49-12.71-.05a1,1,0,0,0-.008,2l12.71.05A1,1,0,0,0,54.689,35.15Zm0,4.51-13.62-.06a1,1,0,0,0-.008,2l13.62.06A1,1,0,0,0,54.689,39.66Zm0,5.49-16.43-.07a1,1,0,0,0-.008,2l16.43.07A1,1,0,0,0,54.689,45.15Z"/></svg>