<svg xmlns="http://www.w3.org/2000/svg" width="20" height="20" enable-background="new 0 0 47.5 47.5" viewBox="0 0 47.5 47.5"><defs><clipPath id="a"><path d="M0 38h38V0H0v38Z"/></clipPath></defs><g clip-path="url(#a)" transform="matrix(1.25 0 0 -1.25 0 47.5)"><path fill="#ccd6dd" d="M0 0a4 4 0 0 1-4-4v-18a4 4 0 0 1 4-4h28a4 4 0 0 1 4 4v18s0 4-4 4H0Z" transform="translate(5 33)"/><path fill="#67757f" d="M37 21.937H1v6.062h36v-6.062z"/><path fill="#f5f8fa" d="M33 12H5v8h28v-8z"/><path fill="#9aaab4" d="M0 0a1.001 1.001 0 0 0-.894 1.447C-.8 1.633 1.424 6 5.001 6c.815 0 1.256-.356 1.482-.655.586-.772.299-1.795.046-2.699a12.644 12.644 0 0 1-.16-.612c.816.132 1.672.634 2.44 1.084.842.492 1.506.882 2.192.882 1.456 0 1.809-1.204 1.96-1.719.024-.084.058-.196.087-.277.756.033 1.614.507 2.522 1.008 2.19 1.207 5.189 2.861 9.056-.231a1 1 0 0 0-1.25-1.562c-2.822 2.26-4.684 1.23-6.84.042C15.413.641 14.252 0 13.001 0c-1.456 0-1.809 1.204-1.959 1.719-.024.079-.054.182-.083.261-.262-.074-.762-.368-1.139-.588C8.761.771 7.444 0 6.001 0 5.26 0 4.852.333 4.64.612c-.554.731-.291 1.668-.037 2.575.063.223.154.547.199.792C2.547 3.738.912.586.896.553A1 1 0 0 0 0 0" transform="translate(6.999 13)"/></g></svg>
