<svg xmlns="http://www.w3.org/2000/svg" viewBox="0 0 32 32"><rect width="30" height="30" x="1" y="1" fill="#ff7d97" rx="5" ry="5"/><path fill="#f0e6e2" d="M8 25a1 1 0 0 1-.71-.29 1 1 0 0 1 0-1.42l16-16a1 1 0 1 1 1.42 1.42l-16 16A1 1 0 0 1 8 25Z"/><path fill="#f0e6e2" d="M24 25a1 1 0 0 1-.71-.29l-16-16a1 1 0 1 1 1.42-1.42l16 16a1 1 0 0 1 0 1.42A1 1 0 0 1 24 25Z"/><path fill="#ff5d7d" d="M28 29H8a5 5 0 0 1-5-5V4a4.9 4.9 0 0 1 .63-2.37A5 5 0 0 0 1 6v20a5 5 0 0 0 5 5h20a5 5 0 0 0 4.37-2.63A4.9 4.9 0 0 1 28 29Z"/></svg>