<svg xmlns="http://www.w3.org/2000/svg" data-name="Layer 1" viewBox="0 0 512 512"><path fill="#f66" d="M256.39 112.42v108.85a10.004 10.004 0 0 1-10 10H127.87a10.004 10.004 0 0 1-10-10V112.42a9.997 9.997 0 0 1 10-10h118.52a9.997 9.997 0 0 1 10 10Z"/><rect width="137.638" height="27.345" x="146.127" y="231.272" fill="#4a4f60" rx="13.673"/><path fill="#3b3f4d" d="M270.093 231.272h-30a13.673 13.673 0 1 1 0 27.345h30a13.673 13.673 0 1 0 0-27.345Z"/><path fill="#4a4f60" d="M224.21 386.985a48.814 48.814 0 0 1-97.63 0v-14.63l97.63-3.015Z"/><path fill="#3b3f4d" d="M209.21 369.804v17.181a48.825 48.825 0 0 1-41.315 48.24 48.847 48.847 0 0 0 56.315-48.24V369.34Z"/><path fill="#fff" d="M156.588 386.985a18.807 18.807 0 1 0 37.614 0V373.87h-37.614Z"/><path fill="#ffe966" d="m378.776 378.904-286.312 3.723c-16.758-28.785 7.803-87.47 49.403-111.512 21.857-12.63 44.17-13.245 56.72-12.502h76.645c-15.999 24.358-14.331 55.442 3.103 75.403 14.066 16.105 36.73 23.079 56.984 18.619 48.553-10.693 45.522-66.838 37.49-104.765-.604-2.857-10.899-35.739-15.207-48.344l33.884 9.478q8.097 27.077 17.587 55.45 10.181 30.348 20.81 58.571l-51.107 55.879Z"/><path fill="#4a4f60" d="M482.52 353.58a48.819 48.819 0 1 1-81.547 49.398"/><path fill="#3b3f4d" d="m482.52 353.58-10.07 6.1a48.798 48.798 0 0 1-32.704 75.834 48.808 48.808 0 0 0 42.774-81.933Z"/><path fill="#fff" d="M456.228 370.78a18.81 18.81 0 1 1-27.83 16.787 19.977 19.977 0 0 1 11.97-17.48c7.656-3.143 14.686.124 15.86.693Z"/><path fill="#ffe236" d="M92.468 382.63c11.48-53.166 61.105-83.158 101.465-72.817 29.243 7.492 52.32 35.825 57.703 70.765ZM409.082 327.636l2.974-1.77a59.98 59.98 0 0 1 82.217 20.873L388.21 409.853a59.98 59.98 0 0 1 20.873-82.217Z"/><path fill="#ff4e4e" d="M256.39 112.42v88.07a69.99 69.99 0 0 1-62.28-98.07h52.28a9.997 9.997 0 0 1 10 10Z"/><ellipse cx="258.221" cy="130.507" fill="#63ea86" rx="55" ry="55.007"/><path fill="#ffe236" d="M375.717 164.912h26.365a4 4 0 0 1 4 4v36.092a4 4 0 0 1-4 4h-26.365a22.046 22.046 0 0 1-22.046-22.046 22.046 22.046 0 0 1 22.046-22.046Z"/><path fill="#ffdf1f" d="M402.082 164.911h-15a4 4 0 0 1 4 4v36.092a4 4 0 0 1-4 4h15a4 4 0 0 0 4-4v-36.091a4 4 0 0 0-4-4Z"/><path fill="#272a33" d="M30.97 184.08h56.9a7.5 7.5 0 1 0 0-15h-56.9a7.5 7.5 0 0 0 0 15Zm-15 30h71.9a7.5 7.5 0 1 0 0-15h-71.9a7.5 7.5 0 0 0 0 15Zm30-60h41.9a7.5 7.5 0 0 0 0-15h-41.9a7.5 7.5 0 0 0 0 15ZM504.5 429h-19.473a55.88 55.88 0 0 0 17.685-32.199 56.608 56.608 0 0 0-8.889-41.067l4.285-2.55a7.5 7.5 0 0 0 2.61-10.28 67.6 67.6 0 0 0-68.024-32.253c-6.39-15.215-12.967-36.888-19.338-57.895-3.716-12.255-7.53-24.827-11.345-36.253h4.07a7.5 7.5 0 0 0 7.5-7.5v-44.092a7.5 7.5 0 0 0-7.5-7.5h-30.364a29.597 29.597 0 0 0-28.579 22.046h-28.697a7.5 7.5 0 0 0 0 15h28.697a29.49 29.49 0 0 0 5.96 11.482 7.53 7.53 0 0 0 .312 1.296c4.179 12.227 11.534 39.694 12.063 42.188 8.204 38.745 9.352 86.831-31.768 95.887a51.99 51.99 0 0 1-49.722-16.227c-15.472-17.715-16.499-44.98-2.505-66.317a21.154 21.154 0 0 0-11.385-38.994h-6.403a17.471 17.471 0 0 0 .2-2.502v-28.525a62.5 62.5 0 1 0-57.008-97.826H127.87a17.52 17.52 0 0 0-17.5 17.5v108.85a17.52 17.52 0 0 0 17.5 17.5h11.68a21.077 21.077 0 0 0 6.149 21.925 96.342 96.342 0 0 0-7.584 3.928c-25.7 14.851-47.444 43.779-55.395 73.697-4.952 18.63-3.852 35.555 3.074 47.73.01.021.022.041.033.062.054.095.101.195.156.289.025.044.057.081.084.124q.177.292.381.566c.04.054.076.112.118.165a7.546 7.546 0 0 0 .569.642c.056.057.116.11.174.165q.244.232.51.443c.06.048.12.097.183.143a7.47 7.47 0 0 0 .704.467l.026.017a7.43 7.43 0 0 0 .816.401c.058.024.117.044.175.067q.324.127.664.226l.259.07c.08.02.157.046.239.064.14.03.281.045.422.068.08.012.157.028.237.038a7.494 7.494 0 0 0 .93.064c.019 0 .036-.004.054-.004h.034l26.59-.346A56.196 56.196 0 0 0 137.95 429H7.5a7.5 7.5 0 0 0 0 15h497a7.5 7.5 0 1 0 0-15Zm-61.86-104.058a52.593 52.593 0 0 1 40.893 19.46l-3.595 2.14a7.469 7.469 0 0 0-2.34 1.391l-86.32 51.366a52.56 52.56 0 0 1 21.639-65.218l2.974-1.77a52.15 52.15 0 0 1 26.75-7.37Zm15.71 64.255a11.305 11.305 0 0 1-22.116.806l18.6-11.068a11.316 11.316 0 0 1 3.516 10.262Zm-97.18-202.24a14.563 14.563 0 0 1 14.547-14.546h22.865v29.092h-22.865a14.563 14.563 0 0 1-14.546-14.546Zm-91.077 51.815a6.17 6.17 0 0 1 .077 12.34h-71.363a122.166 122.166 0 0 0-13.99.005H159.8a6.173 6.173 0 1 1 0-12.345ZM258.222 83a47.507 47.507 0 1 1-47.5 47.507A47.557 47.557 0 0 1 258.221 83ZM127.87 223.77a2.503 2.503 0 0 1-2.5-2.5V112.42a2.503 2.503 0 0 1 2.5-2.5h71.35a62.476 62.476 0 0 0 49.67 82.394v28.956a2.503 2.503 0 0 1-2.5 2.5ZM97.216 342.172c6.98-26.262 25.98-51.605 48.404-64.564a89.853 89.853 0 0 1 39.613-11.491H262.7c-10.658 24.74-7.145 53.218 9.986 72.833a67.175 67.175 0 0 0 64.246 21.009c41.453-9.13 56.8-49.488 43.215-113.642-.51-2.413-4.428-17.149-8.224-30.066a29.635 29.635 0 0 0 3.794.252h10.456c4.275 12.4 8.615 26.71 12.829 40.606 6.228 20.54 12.652 41.706 19.088 57.48a68.285 68.285 0 0 0-9.87 4.831l-2.973 1.77a67.037 67.037 0 0 0-30.898 41.386 68.479 68.479 0 0 0-1.63 8.905l-114.877 1.494c-7.576-34.81-31.881-62.698-62.048-70.429-20.545-5.263-43.886-1.136-64.04 11.322a102.697 102.697 0 0 0-36.745 39.88 78.776 78.776 0 0 1 2.207-11.576Zm5.077 32.826c6.586-20.245 19.85-37.555 37.348-48.372 16.705-10.325 35.815-13.806 52.43-9.548 23.886 6.12 43.376 28.15 50.418 56.097Zm84.233 13.905a11.298 11.298 0 0 1-22.218.29ZM175.395 428.3a41.361 41.361 0 0 1-41.224-38.715l15.032-.195a26.301 26.301 0 0 0 52.436-.682l15.032-.196a41.357 41.357 0 0 1-41.276 39.788Zm37.444.7a56.179 56.179 0 0 0 18.837-40.683l19.506-.253a7.486 7.486 0 0 0 1.022-.014l120.445-1.566a67.265 67.265 0 0 0 9.115 27.205 7.5 7.5 0 0 0 10.28 2.61l5.176-3.08A56.313 56.313 0 0 0 409.37 429Zm258.225-7.983a41.314 41.314 0 0 1-60.924-15.486l12.973-7.72a26.296 26.296 0 1 0 44.84-26.682l12.964-7.714a41.304 41.304 0 0 1-9.853 57.602Zm-212.842-283.01h21.627a7.5 7.5 0 1 0 0-15h-14.127v-20.855a7.5 7.5 0 1 0-15 0v28.356a7.5 7.5 0 0 0 7.5 7.5Z"/></svg>