<svg width="20" height="20" viewBox="0 0 20 20" fill="none" xmlns="http://www.w3.org/2000/svg">
<circle cx="10.0002" cy="9.70874" r="9.70874" fill="#151875"/>
<path d="M14.2447 7.40728C14.2395 7.01511 14.1661 6.62684 14.0277 6.25983C13.9078 5.95027 13.7246 5.66913 13.4898 5.43437C13.2551 5.19962 12.9739 5.01642 12.6644 4.89647C12.3021 4.76047 11.9193 4.68694 11.5325 4.67899C11.0343 4.65673 10.8764 4.65051 9.61194 4.65051C8.34748 4.65051 8.18541 4.65051 7.69091 4.67899C7.30419 4.68699 6.92164 4.76053 6.55952 4.89647C6.2499 5.01633 5.96872 5.19951 5.73395 5.43427C5.49919 5.66903 5.31601 5.95022 5.19615 6.25983C5.05988 6.62184 4.98651 7.00449 4.97919 7.39122C4.95693 7.88987 4.9502 8.04779 4.9502 9.31226C4.9502 10.5767 4.9502 10.7383 4.97919 11.2333C4.98696 11.6206 5.05997 12.0027 5.19615 12.3657C5.31622 12.6752 5.49953 12.9563 5.73437 13.191C5.96921 13.4256 6.25042 13.6087 6.56003 13.7286C6.92116 13.87 7.30379 13.9488 7.69143 13.9616C8.19007 13.9838 8.34799 13.9906 9.61246 13.9906C10.8769 13.9906 11.039 13.9906 11.5335 13.9616C11.9204 13.954 12.3031 13.8806 12.6654 13.7446C12.9749 13.6245 13.256 13.4413 13.4907 13.2065C13.7254 12.9718 13.9087 12.6907 14.0288 12.3813C14.165 12.0188 14.238 11.6367 14.2457 11.2488C14.268 10.7507 14.2747 10.5928 14.2747 9.32779C14.2737 8.06333 14.2737 7.90281 14.2447 7.40728ZM9.60884 11.7035C8.28638 11.7035 7.21505 10.6321 7.21505 9.30967C7.21505 7.98721 8.28638 6.91588 9.60884 6.91588C10.2437 6.91588 10.8526 7.16809 11.3015 7.61701C11.7504 8.06593 12.0026 8.6748 12.0026 9.30967C12.0026 9.94454 11.7504 10.5534 11.3015 11.0023C10.8526 11.4513 10.2437 11.7035 9.60884 11.7035ZM12.0979 7.38553C11.7888 7.38553 11.5397 7.13595 11.5397 6.82734C11.5397 6.75407 11.5541 6.68152 11.5822 6.61383C11.6102 6.54614 11.6513 6.48463 11.7031 6.43283C11.7549 6.38102 11.8164 6.33992 11.8841 6.31188C11.9518 6.28384 12.0244 6.26941 12.0976 6.26941C12.1709 6.26941 12.2435 6.28384 12.3111 6.31188C12.3788 6.33992 12.4403 6.38102 12.4922 6.43283C12.544 6.48463 12.5851 6.54614 12.6131 6.61383C12.6411 6.68152 12.6556 6.75407 12.6556 6.82734C12.6556 7.13595 12.406 7.38553 12.0979 7.38553Z" fill="white"/>
<path d="M9.60866 10.8643C10.4674 10.8643 11.1636 10.1681 11.1636 9.30935C11.1636 8.45057 10.4674 7.75439 9.60866 7.75439C8.74989 7.75439 8.05371 8.45057 8.05371 9.30935C8.05371 10.1681 8.74989 10.8643 9.60866 10.8643Z" fill="white"/>
</svg>
