<svg xmlns="http://www.w3.org/2000/svg" data-name="Layer 1" viewBox="0 0 48 48"><path fill="#ffd164" d="M45,12.94V40a5,5,0,0,1-5,5H8a5,5,0,0,1-5-5V12.94a4.945,4.945,0,0,1,.53-2.23L6.55,4.66A2.992,2.992,0,0,1,9.24,3H38.76a2.992,2.992,0,0,1,2.69,1.66l3.02,6.05A4.945,4.945,0,0,1,45,12.94Z"/><path fill="#fff2b4" d="M29,27a1,1,0,0,0,1-1V12a1,1,0,0,0-1-1H19a1,1,0,0,0-1,1V26a1,1,0,0,0,1.515.857L24,24.166l4.485,2.691A1,1,0,0,0,29,27Z"/><path fill="#fdb441" d="M45,12.94V13H3v-.06a4.945,4.945,0,0,1,.53-2.23L6.55,4.66A2.992,2.992,0,0,1,9.24,3H38.76a2.992,2.992,0,0,1,2.69,1.66l3.02,6.05A4.945,4.945,0,0,1,45,12.94Z"/><rect width="12" height="6" x="26" y="34" fill="#f9f6f6" rx="1"/><polygon fill="#f2e3a2" points="30 13 18.01 13 18.83 3 29.17 3 30 13"/><path fill="#232323" d="M19,13H4a1,1,0,0,1,0-2H18.91a1.039,1.039,0,0,1,1.045,1A.962.962,0,0,1,19,13Z"/><path fill="#232323" d="M30,13H18a1,1,0,0,1-.97-1.242l2-8A1,1,0,0,1,20,3h8a1,1,0,0,1,.97.758l2,8A1,1,0,0,1,30,13ZM19.281,11h9.438l-1.5-6H20.781Z"/><path fill="#232323" d="M30,28a1.006,1.006,0,0,1-.555-.168L24,24.2l-5.445,3.63A1,1,0,0,1,17,27V12a1,1,0,0,1,1-1H30a1,1,0,0,1,1,1V27a1,1,0,0,1-1,1Zm-6-6a1,1,0,0,1,.555.168L29,25.132V13H19V25.132l4.445-2.964A1,1,0,0,1,24,22Z"/><path fill="#232323" d="M40,45H8a5.006,5.006,0,0,1-5-5V12.944a5.028,5.028,0,0,1,.528-2.236l3.025-6.05A2.984,2.984,0,0,1,9.236,3H38.764a2.984,2.984,0,0,1,2.683,1.658l3.025,6.05A5.028,5.028,0,0,1,45,12.944V40A5.006,5.006,0,0,1,40,45ZM9.236,5a.994.994,0,0,0-.894.553L5.317,11.6A3,3,0,0,0,5,12.944V40a3,3,0,0,0,3,3H40a3,3,0,0,0,3-3V12.944a3,3,0,0,0-.317-1.341l-3.025-6.05A.994.994,0,0,0,38.764,5Z"/><path fill="#232323" d="M44,13H33.09a1.039,1.039,0,0,1-1.045-1A.962.962,0,0,1,33,11H44a1,1,0,0,1,0,2Z"/></svg>