<svg xmlns="http://www.w3.org/2000/svg" width="50" height="50" data-name="Filled expand" viewBox="0 0 512 512"><path fill="#fa5d3f" d="M340,488H60a20,20,0,0,1-20-20V456L72,104H328l32,360v4A20,20,0,0,1,340,488Z"/><circle cx="256" cy="168" r="16" fill="#fff2f0"/><circle cx="144" cy="168" r="16" fill="#fff2f0"/><polygon fill="#fac850" points="49.685 349.469 188.215 488 256.098 488 55.342 287.244 49.685 349.469"/><circle cx="344" cy="320" r="128" fill="#fac850"/><circle cx="344" cy="320" r="88" fill="#fffdfa"/><polygon fill="#fac850" points="412 96 402.101 114.101 384 124 402.101 133.899 412 152 421.899 133.899 440 124 421.899 114.101 412 96"/><polygon fill="#fac850" points="140 240 130.101 258.101 112 268 130.101 277.899 140 296 149.899 277.899 168 268 149.899 258.101 140 240"/><path d="M79.306 112H136v33.371a24 24 0 1 0 16 0V112h96v33.371a24 24 0 1 0 16 0V112h56.68l5.04 56.708 15.937-1.416-5.688-64A8 8 0 0 0 328 96H264V64a48.054 48.054 0 0 0-48-48H184a48.054 48.054 0 0 0-48 48V96H72a8 8 0 0 0-7.967 7.276L53.866 215.113 69.8 216.562zM144 176a8 8 0 1 1 8-8A8.009 8.009 0 0 1 144 176zm112 0a8 8 0 1 1 8-8A8.009 8.009 0 0 1 256 176zM152 64a32.036 32.036 0 0 1 32-32h32a32.036 32.036 0 0 1 32 32V96H152zM340 480H259.412L63.647 284.236l4.683-51.512L52.4 231.276l-20.363 224Q32 455.638 32 456v12a28.032 28.032 0 0 0 28 28H340a28.09 28.09 0 0 0 27.432-22.365l-15.676-3.208A12.031 12.031 0 0 1 340 480zm-103.216 0H191.529L57.991 346.461l3.771-41.483zM48 468V456.363l8.1-89.159L168.9 480H60A12.013 12.013 0 0 1 48 468z"/><path d="M456.07,242.932,442.9,252.009A120.151,120.151,0,1,1,431.141,237.5l11.617-11A134.771,134.771,0,0,0,344,184c-74.99,0-136,61.009-136,136s61.01,136,136,136,136-61.009,136-136A135.236,135.236,0,0,0,456.07,242.932Z"/><path d="M368,352H320v16h48a40,40,0,0,0,0-80H323.314l10.343-10.343-11.314-11.314-24,24a8,8,0,0,0,0,11.314l24,24,11.314-11.314L323.314,304H368a24,24,0,0,1,0,48Z"/><path d="M440 320a96 96 0 1 0-185.242 35.443l-12.818-3.2-3.88 15.522 32 8a7.995 7.995 0 0 0 9.53-5.231l8-24-15.18-5.06-2.731 8.192A80.014 80.014 0 1 1 344 400v16A96.108 96.108 0 0 0 440 320zM380.161 131.019l16.045 8.775 8.775 16.045a8 8 0 0 0 14.038 0l8.775-16.045 16.045-8.775a8 8 0 0 0 0-14.038l-16.045-8.775-8.775-16.045a8 8 0 0 0-14.038 0l-8.775 16.045-16.045 8.775a8 8 0 0 0 0 14.038zm25.778-9.9a8 8 0 0 0 3.18-3.181L412 112.672l2.881 5.267a8 8 0 0 0 3.18 3.181l5.267 2.88-5.267 2.88a8 8 0 0 0-3.18 3.181L412 135.328l-2.881-5.267a8 8 0 0 0-3.18-3.181L400.672 124zM155.794 252.206l-8.775-16.045a8 8 0 0 0-14.038 0l-8.775 16.045-16.045 8.775a8 8 0 0 0 0 14.038l16.045 8.775 8.775 16.045a8 8 0 0 0 14.038 0l8.775-16.045 16.045-8.775a8 8 0 0 0 0-14.038zm-9.733 18.674a8 8 0 0 0-3.18 3.181L140 279.328l-2.881-5.267a8 8 0 0 0-3.18-3.181L128.672 268l5.267-2.88a8 8 0 0 0 3.18-3.181L140 256.672l2.881 5.267a8 8 0 0 0 3.18 3.181l5.267 2.88z"/></svg>
