<svg width="20" height="20" viewBox="0 0 20 20" fill="none" xmlns="http://www.w3.org/2000/svg">
<circle cx="10.2917" cy="9.70874" r="9.70874" fill="#151875"/>
<path d="M15.9329 5.66303C15.5006 5.85461 15.0361 5.98406 14.5478 6.04257C15.0516 5.74111 15.4286 5.26664 15.6083 4.70769C15.1349 4.98885 14.6169 5.18675 14.0766 5.2928C13.7133 4.9049 13.2321 4.64779 12.7077 4.5614C12.1833 4.475 11.6451 4.56415 11.1766 4.815C10.708 5.06586 10.3354 5.46438 10.1166 5.9487C9.89774 6.43302 9.84493 6.97604 9.96633 7.49345C9.0072 7.44529 8.06892 7.196 7.21238 6.76175C6.35583 6.3275 5.60016 5.718 4.99442 4.9728C4.7873 5.33008 4.66821 5.74432 4.66821 6.18549C4.66798 6.58264 4.76578 6.9737 4.95294 7.32399C5.14009 7.67428 5.41082 7.97295 5.74109 8.19351C5.35806 8.18133 4.98348 8.07783 4.64853 7.89164V7.9227C4.64849 8.47972 4.84117 9.0196 5.19387 9.45073C5.54657 9.88186 6.03757 10.1777 6.58355 10.288C6.22823 10.3842 5.8557 10.3983 5.4941 10.3294C5.64814 10.8087 5.94821 11.2278 6.35228 11.5281C6.75636 11.8284 7.24422 11.9948 7.74756 12.004C6.89311 12.6748 5.83786 13.0386 4.75157 13.037C4.55915 13.0371 4.36689 13.0258 4.17578 13.0034C5.27842 13.7123 6.56198 14.0886 7.87287 14.0871C12.3104 14.0871 14.7363 10.4118 14.7363 7.22419C14.7363 7.12063 14.7337 7.01604 14.729 6.91248C15.2009 6.57123 15.6082 6.14867 15.9319 5.66458L15.9329 5.66303Z" fill="white"/>
</svg>
