<svg xmlns="http://www.w3.org/2000/svg" viewBox="-2 0 35 35"><path fill="#34485c" d="M8.869 24H7.013M2.99 24H1v-3h28v3h-1.9m-4.221 0h-9.811"/><path fill="#2b4255" d="M0 7h21v14H0V7z"/><path fill="#2b4255" d="M0 20h31v2H0v-2z"/><path fill="#f05542" fill-rule="evenodd" d="M22.014 20.053v-8.72L22 9h6.5c1.385 0 2.5 1.115 2.5 2.5v8.553"/><path fill="#576d7e" d="M7 24a2 2 0 0 1-2 2 2 2 0 0 1-2-2 2 2 0 0 1 2-2 2 2 0 0 1 2 2z"/><path fill="#2b4255" d="M5.5 24a.5.5 0 0 1-.5.5.5.5 0 0 1-.5-.5.5.5 0 0 1 .5-.5.5.5 0 0 1 .5.5z"/><path fill="#576d7e" d="M13 24a2 2 0 0 1-2 2 2 2 0 0 1-2-2 2 2 0 0 1 2-2 2 2 0 0 1 2 2z"/><path fill="#2b4255" d="M11.5 24a.5.5 0 0 1-.5.5.5.5 0 0 1-.5-.5.5.5 0 0 1 .5-.5.5.5 0 0 1 .5.5z"/><path fill="#576d7e" d="M27 24a2 2 0 0 1-2 2 2 2 0 0 1-2-2 2 2 0 0 1 2-2 2 2 0 0 1 2 2z"/><path fill="#2b4255" d="M25.5 24a.5.5 0 0 1-.5.5.5.5 0 0 1-.5-.5.5.5 0 0 1 .5-.5.5.5 0 0 1 .5.5z"/><path fill="#4bbfeb" d="M29.335 15.794v-3.61c0-.77-.613-1.39-1.374-1.39h-3.626v5h4z"/><path fill="#2b4255" fill-rule="evenodd" style="line-height:normal;text-indent:0;text-align:start;text-decoration-line:none;text-decoration-style:solid;text-decoration-color:#000;text-transform:none;block-progression:tb;isolation:auto;mix-blend-mode:normal" d="M-1345.154 1395.656a.5.5 0 1 0 0 1h1a.5.5 0 1 0 0-1h-1z" color="#000" font-family="sans-serif" font-weight="400" overflow="visible" transform="translate(1369.996 -1378.862)"/><path fill="#576d7e" fill-rule="evenodd" style="line-height:normal;text-indent:0;text-align:start;text-decoration-line:none;text-decoration-style:solid;text-decoration-color:#000;text-transform:none;block-progression:tb;isolation:auto;mix-blend-mode:normal" d="M-1367.504 1388.367a.5.5 0 0 0-.492.506v6.973a.5.5 0 1 0 1 0v-6.973a.5.5 0 0 0-.508-.506zm4 0a.5.5 0 0 0-.492.506v6.973a.5.5 0 1 0 1 0v-6.973a.5.5 0 0 0-.508-.506zm4 0a.5.5 0 0 0-.492.506v6.973a.5.5 0 1 0 1 0v-6.973a.5.5 0 0 0-.508-.506zm4 0a.5.5 0 0 0-.492.506v6.973a.5.5 0 1 0 1 0v-6.973a.5.5 0 0 0-.508-.506zm4 0a.5.5 0 0 0-.492.506v6.973a.5.5 0 1 0 1 0v-6.973a.5.5 0 0 0-.508-.506z" color="#000" font-family="sans-serif" font-weight="400" overflow="visible" transform="translate(1369.996 -1378.862)"/><path fill="#78c8f0" d="m25.396 10.795-.795 5h1l.795-5h-1zm1.5 0-.795 5h1l.795-5h-1z"/></svg>
