<svg width="16" height="16" viewBox="0 0 16 16" fill="none" xmlns="http://www.w3.org/2000/svg">
<path d="M11.6666 0.666626H2.33325C1.80282 0.666626 1.29411 0.87734 0.919038 1.25241C0.543966 1.62749 0.333252 2.13619 0.333252 2.66663V9.33329C0.333252 9.86372 0.543966 10.3724 0.919038 10.7475C1.29411 11.1226 1.80282 11.3333 2.33325 11.3333H11.6666C12.197 11.3333 12.7057 11.1226 13.0808 10.7475C13.4559 10.3724 13.6666 9.86372 13.6666 9.33329V2.66663C13.6666 2.13619 13.4559 1.62749 13.0808 1.25241C12.7057 0.87734 12.197 0.666626 11.6666 0.666626ZM2.33325 1.99996H11.6666C11.8434 1.99996 12.013 2.0702 12.138 2.19522C12.263 2.32025 12.3333 2.48981 12.3333 2.66663L6.99992 5.91996L1.66659 2.66663C1.66659 2.48981 1.73682 2.32025 1.86185 2.19522C1.98687 2.0702 2.15644 1.99996 2.33325 1.99996ZM12.3333 9.33329C12.3333 9.5101 12.263 9.67967 12.138 9.8047C12.013 9.92972 11.8434 9.99996 11.6666 9.99996H2.33325C2.15644 9.99996 1.98687 9.92972 1.86185 9.8047C1.73682 9.67967 1.66659 9.5101 1.66659 9.33329V4.18663L6.65325 7.23329C6.7546 7.2918 6.86956 7.32261 6.98659 7.32261C7.10361 7.32261 7.21857 7.2918 7.31992 7.23329L12.3333 4.18663V9.33329Z" fill="white"/>
</svg>
