<svg width="16" height="16" viewBox="0 0 16 16" fill="none" xmlns="http://www.w3.org/2000/svg">
<path d="M10.0441 13.666H10.0627C10.4147 13.666 10.7474 13.5274 10.9994 13.2754L12.8074 11.4674C12.8694 11.4055 12.9185 11.332 12.9521 11.2512C12.9856 11.1703 13.0029 11.0836 13.0029 10.996C13.0029 10.9085 12.9856 10.8218 12.9521 10.7409C12.9185 10.66 12.8694 10.5866 12.8074 10.5247L10.1407 7.85804C10.0789 7.79608 10.0054 7.74692 9.92453 7.71338C9.84365 7.67984 9.75695 7.66257 9.6694 7.66257C9.58184 7.66257 9.49514 7.67984 9.41427 7.71338C9.33339 7.74692 9.25992 7.79608 9.19806 7.85804L8.1354 8.92071C7.64273 8.77404 6.7234 8.44071 6.14073 7.85804C5.55806 7.27537 5.22473 6.35604 5.07806 5.86337L6.14073 4.80071C6.20269 4.73885 6.25185 4.66538 6.28539 4.5845C6.31893 4.50363 6.3362 4.41693 6.3362 4.32937C6.3362 4.24182 6.31893 4.15512 6.28539 4.07425C6.25185 3.99337 6.20269 3.9199 6.14073 3.85804L3.47406 1.19137C3.34661 1.07108 3.17799 1.00406 3.00273 1.00406C2.82747 1.00406 2.65885 1.07108 2.5314 1.19137L0.724063 2.99937C0.47073 3.25271 0.328063 3.60071 0.333396 3.95604C0.34873 4.90537 0.600063 8.20271 3.19873 10.8014C5.7974 13.4 9.09473 13.6507 10.0441 13.666ZM3.0034 2.60537L4.7274 4.32937L3.8654 5.19137C3.78695 5.2696 3.72933 5.36621 3.69777 5.47241C3.66622 5.5786 3.66173 5.691 3.68473 5.79937C3.70073 5.87604 4.09206 7.69404 5.19873 8.80071C6.3054 9.90737 8.1234 10.2987 8.20006 10.3147C8.30843 10.3378 8.42087 10.3334 8.52708 10.3018C8.6333 10.2703 8.72991 10.2126 8.80806 10.134L9.67006 9.27204L11.3941 10.996L10.0567 12.3327C9.22473 12.3187 6.37806 12.0954 4.1414 9.85804C1.8974 7.61404 1.68006 4.75737 1.66673 3.94204L3.0034 2.60537ZM12.3327 6.33271H13.6661C13.6661 2.91271 11.0841 0.333374 7.6594 0.333374V1.66671C10.3674 1.66671 12.3327 3.62871 12.3327 6.33271Z" fill="white"/>
</svg>
